<mxfile host="Electron" agent="Mozilla/5.0 (Windows NT 10.0; Win64; x64) AppleWebKit/537.36 (KHTML, like Gecko) draw.io/26.2.2 Chrome/134.0.6998.178 Electron/35.1.2 Safari/537.36" version="26.2.2">
  <diagram name="Trang-1" id="Frv1lEbRy8fFS-0ds0Gn">
    <mxGraphModel dx="1683" dy="1445" grid="1" gridSize="10" guides="1" tooltips="1" connect="1" arrows="1" fold="1" page="1" pageScale="1" pageWidth="1169" pageHeight="827" math="0" shadow="0">
      <root>
        <mxCell id="0" />
        <mxCell id="1" parent="0" />
        <mxCell id="TYIHFJzu6QTAWkSfno5F-4" value="Student" style="swimlane;whiteSpace=wrap;html=1;swimlaneFillColor=default;fillColor=#EFEFEF;" parent="1" vertex="1">
          <mxGeometry x="-10" y="210" width="390" height="240" as="geometry" />
        </mxCell>
        <mxCell id="TYIHFJzu6QTAWkSfno5F-7" value="&lt;h1 style=&quot;margin-top: 0px;&quot;&gt;&lt;span&gt;&lt;span style=&quot;box-sizing: border-box; white-space-collapse: preserve; font-family: &amp;quot;Source Code Pro&amp;quot;, Consolas, &amp;quot;Bitstream Vera Sans Mono&amp;quot;, &amp;quot;Courier New&amp;quot;, Courier, monospace; color: rgb(99, 177, 117);&quot; class=&quot;hljs-keyword&quot;&gt;class&lt;/span&gt;&lt;span style=&quot;white-space-collapse: preserve; font-weight: 400; font-family: &amp;quot;Source Code Pro&amp;quot;, Consolas, &amp;quot;Bitstream Vera Sans Mono&amp;quot;, &amp;quot;Courier New&amp;quot;, Courier, monospace; color: rgb(10, 10, 10);&quot;&gt; &lt;/span&gt;&lt;span style=&quot;box-sizing: border-box; white-space-collapse: preserve; font-family: &amp;quot;Source Code Pro&amp;quot;, Consolas, &amp;quot;Bitstream Vera Sans Mono&amp;quot;, &amp;quot;Courier New&amp;quot;, Courier, monospace; color: rgb(99, 177, 117);&quot; class=&quot;hljs-title class_&quot;&gt;Student&lt;/span&gt;&lt;span style=&quot;white-space-collapse: preserve; font-weight: 400; font-family: &amp;quot;Source Code Pro&amp;quot;, Consolas, &amp;quot;Bitstream Vera Sans Mono&amp;quot;, &amp;quot;Courier New&amp;quot;, Courier, monospace; color: rgb(10, 10, 10);&quot;&gt; {&lt;/span&gt;&lt;span style=&quot;white-space-collapse: preserve; font-weight: 400; font-family: &amp;quot;Source Code Pro&amp;quot;, Consolas, &amp;quot;Bitstream Vera Sans Mono&amp;quot;, &amp;quot;Courier New&amp;quot;, Courier, monospace; color: rgb(10, 10, 10);&quot;&gt;&lt;br&gt;    &lt;/span&gt;&lt;span style=&quot;box-sizing: border-box; white-space-collapse: preserve; font-weight: 400; font-family: &amp;quot;Source Code Pro&amp;quot;, Consolas, &amp;quot;Bitstream Vera Sans Mono&amp;quot;, &amp;quot;Courier New&amp;quot;, Courier, monospace; color: rgb(99, 177, 117);&quot; class=&quot;hljs-comment&quot;&gt;// ...&lt;/span&gt;&lt;font style=&quot;box-sizing: border-box; color: rgb(10, 10, 10); font-family: &amp;quot;Source Code Pro&amp;quot;, Consolas, &amp;quot;Bitstream Vera Sans Mono&amp;quot;, &amp;quot;Courier New&amp;quot;, Courier, monospace; font-weight: 400; white-space-collapse: preserve;&quot;&gt;&lt;/font&gt;&lt;span style=&quot;white-space-collapse: preserve; font-weight: 400; font-family: &amp;quot;Source Code Pro&amp;quot;, Consolas, &amp;quot;Bitstream Vera Sans Mono&amp;quot;, &amp;quot;Courier New&amp;quot;, Courier, monospace; color: rgb(10, 10, 10);&quot;&gt;&lt;br&gt;&lt;/span&gt;&lt;font style=&quot;box-sizing: border-box; color: rgb(10, 10, 10); font-family: &amp;quot;Source Code Pro&amp;quot;, Consolas, &amp;quot;Bitstream Vera Sans Mono&amp;quot;, &amp;quot;Courier New&amp;quot;, Courier, monospace; font-weight: 400; white-space-collapse: preserve;&quot;&gt;&lt;/font&gt;&lt;span style=&quot;white-space-collapse: preserve; font-weight: 400; font-family: &amp;quot;Source Code Pro&amp;quot;, Consolas, &amp;quot;Bitstream Vera Sans Mono&amp;quot;, &amp;quot;Courier New&amp;quot;, Courier, monospace; color: rgb(10, 10, 10);&quot;&gt;&lt;br&gt;    &lt;/span&gt;&lt;span style=&quot;box-sizing: border-box; white-space-collapse: preserve; font-weight: 400; font-family: &amp;quot;Source Code Pro&amp;quot;, Consolas, &amp;quot;Bitstream Vera Sans Mono&amp;quot;, &amp;quot;Courier New&amp;quot;, Courier, monospace; color: rgb(99, 177, 117);&quot; class=&quot;hljs-meta&quot;&gt;@OneToMany(mappedBy = &quot;studentObject&quot;)&lt;/span&gt;&lt;font style=&quot;box-sizing: border-box; color: rgb(10, 10, 10); font-family: &amp;quot;Source Code Pro&amp;quot;, Consolas, &amp;quot;Bitstream Vera Sans Mono&amp;quot;, &amp;quot;Courier New&amp;quot;, Courier, monospace; font-weight: 400; white-space-collapse: preserve;&quot;&gt;&lt;/font&gt;&lt;span style=&quot;white-space-collapse: preserve; font-weight: 400; font-family: &amp;quot;Source Code Pro&amp;quot;, Consolas, &amp;quot;Bitstream Vera Sans Mono&amp;quot;, &amp;quot;Courier New&amp;quot;, Courier, monospace; color: rgb(10, 10, 10);&quot;&gt;&lt;br&gt;    Set&amp;lt;CourseRating&amp;gt; courseRatingsObject;&lt;/span&gt;&lt;font style=&quot;box-sizing: border-box; color: rgb(10, 10, 10); font-family: &amp;quot;Source Code Pro&amp;quot;, Consolas, &amp;quot;Bitstream Vera Sans Mono&amp;quot;, &amp;quot;Courier New&amp;quot;, Courier, monospace; font-weight: 400; white-space-collapse: preserve;&quot;&gt;&lt;/font&gt;&lt;span style=&quot;white-space-collapse: preserve; font-weight: 400; font-family: &amp;quot;Source Code Pro&amp;quot;, Consolas, &amp;quot;Bitstream Vera Sans Mono&amp;quot;, &amp;quot;Courier New&amp;quot;, Courier, monospace; color: rgb(10, 10, 10);&quot;&gt;&lt;br&gt;&lt;/span&gt;&lt;font style=&quot;box-sizing: border-box; color: rgb(10, 10, 10); font-family: &amp;quot;Source Code Pro&amp;quot;, Consolas, &amp;quot;Bitstream Vera Sans Mono&amp;quot;, &amp;quot;Courier New&amp;quot;, Courier, monospace; font-weight: 400; white-space-collapse: preserve;&quot;&gt;&lt;/font&gt;&lt;span style=&quot;white-space-collapse: preserve; font-weight: 400; font-family: &amp;quot;Source Code Pro&amp;quot;, Consolas, &amp;quot;Bitstream Vera Sans Mono&amp;quot;, &amp;quot;Courier New&amp;quot;, Courier, monospace; color: rgb(10, 10, 10);&quot;&gt;&lt;br&gt;    &lt;/span&gt;&lt;span style=&quot;box-sizing: border-box; white-space-collapse: preserve; font-weight: 400; font-family: &amp;quot;Source Code Pro&amp;quot;, Consolas, &amp;quot;Bitstream Vera Sans Mono&amp;quot;, &amp;quot;Courier New&amp;quot;, Courier, monospace; color: rgb(99, 177, 117);&quot; class=&quot;hljs-comment&quot;&gt;// ...&lt;/span&gt;&lt;font style=&quot;box-sizing: border-box; color: rgb(10, 10, 10); font-family: &amp;quot;Source Code Pro&amp;quot;, Consolas, &amp;quot;Bitstream Vera Sans Mono&amp;quot;, &amp;quot;Courier New&amp;quot;, Courier, monospace; font-weight: 400; white-space-collapse: preserve;&quot;&gt;&lt;/font&gt;&lt;span style=&quot;white-space-collapse: preserve; font-weight: 400; font-family: &amp;quot;Source Code Pro&amp;quot;, Consolas, &amp;quot;Bitstream Vera Sans Mono&amp;quot;, &amp;quot;Courier New&amp;quot;, Courier, monospace; color: rgb(10, 10, 10);&quot;&gt;&lt;br&gt;}&lt;/span&gt;&lt;/span&gt;&lt;/h1&gt;" style="text;html=1;overflow=hidden;rounded=0;spacingTop=0;spacing=2;whiteSpace=wrap;fontSize=7;labelBackgroundColor=default;" parent="TYIHFJzu6QTAWkSfno5F-4" vertex="1">
          <mxGeometry x="10" y="54" width="350" height="150" as="geometry" />
        </mxCell>
        <mxCell id="TYIHFJzu6QTAWkSfno5F-6" value="" style="shape=image;verticalLabelPosition=bottom;labelBackgroundColor=default;verticalAlign=top;aspect=fixed;imageAspect=0;image=https://www.baeldung.com/wp-content/uploads/2018/11/relation-attribute-model-updated.png;" parent="1" vertex="1">
          <mxGeometry x="330" y="-20" width="829.3" height="170" as="geometry" />
        </mxCell>
        <mxCell id="TYIHFJzu6QTAWkSfno5F-13" style="edgeStyle=orthogonalEdgeStyle;rounded=0;orthogonalLoop=1;jettySize=auto;html=1;exitX=0;exitY=0.5;exitDx=0;exitDy=0;strokeWidth=4;endSize=30;endArrow=diamondThin;endFill=0;" parent="1" source="TYIHFJzu6QTAWkSfno5F-8" edge="1">
          <mxGeometry relative="1" as="geometry">
            <mxPoint x="1100" y="370" as="sourcePoint" />
            <mxPoint x="930" y="690" as="targetPoint" />
            <Array as="points">
              <mxPoint x="1025" y="294" />
              <mxPoint x="1025" y="690" />
            </Array>
          </mxGeometry>
        </mxCell>
        <mxCell id="TYIHFJzu6QTAWkSfno5F-8" value="Course" style="swimlane;whiteSpace=wrap;html=1;swimlaneFillColor=default;fillColor=#EFEFEF;" parent="1" vertex="1">
          <mxGeometry x="1100" y="174" width="360" height="240" as="geometry" />
        </mxCell>
        <mxCell id="TYIHFJzu6QTAWkSfno5F-9" value="&lt;h1 style=&quot;margin-top: 0px;&quot;&gt;&lt;span&gt;&lt;span style=&quot;box-sizing: border-box; font-family: &amp;quot;Source Code Pro&amp;quot;, Consolas, &amp;quot;Bitstream Vera Sans Mono&amp;quot;, &amp;quot;Courier New&amp;quot;, Courier, monospace; white-space-collapse: preserve; color: rgb(99, 177, 117);&quot; class=&quot;hljs-keyword&quot;&gt;class&lt;/span&gt;&lt;span style=&quot;color: rgb(10, 10, 10); font-family: &amp;quot;Source Code Pro&amp;quot;, Consolas, &amp;quot;Bitstream Vera Sans Mono&amp;quot;, &amp;quot;Courier New&amp;quot;, Courier, monospace; font-weight: 400; white-space-collapse: preserve;&quot;&gt; &lt;/span&gt;&lt;span style=&quot;box-sizing: border-box; font-family: &amp;quot;Source Code Pro&amp;quot;, Consolas, &amp;quot;Bitstream Vera Sans Mono&amp;quot;, &amp;quot;Courier New&amp;quot;, Courier, monospace; white-space-collapse: preserve; color: rgb(99, 177, 117);&quot; class=&quot;hljs-title class_&quot;&gt;Course&lt;/span&gt;&lt;span style=&quot;color: rgb(10, 10, 10); font-family: &amp;quot;Source Code Pro&amp;quot;, Consolas, &amp;quot;Bitstream Vera Sans Mono&amp;quot;, &amp;quot;Courier New&amp;quot;, Courier, monospace; font-weight: 400; white-space-collapse: preserve;&quot;&gt; {&lt;/span&gt;&lt;span style=&quot;color: rgb(10, 10, 10); font-family: &amp;quot;Source Code Pro&amp;quot;, Consolas, &amp;quot;Bitstream Vera Sans Mono&amp;quot;, &amp;quot;Courier New&amp;quot;, Courier, monospace; font-weight: 400; white-space-collapse: preserve;&quot;&gt;&lt;br&gt;    &lt;/span&gt;&lt;span style=&quot;box-sizing: border-box; font-family: &amp;quot;Source Code Pro&amp;quot;, Consolas, &amp;quot;Bitstream Vera Sans Mono&amp;quot;, &amp;quot;Courier New&amp;quot;, Courier, monospace; font-weight: 400; white-space-collapse: preserve; color: rgb(99, 177, 117);&quot; class=&quot;hljs-comment&quot;&gt;// ...&lt;/span&gt;&lt;font style=&quot;box-sizing: border-box; color: rgb(10, 10, 10); font-family: &amp;quot;Source Code Pro&amp;quot;, Consolas, &amp;quot;Bitstream Vera Sans Mono&amp;quot;, &amp;quot;Courier New&amp;quot;, Courier, monospace; font-weight: 400; white-space-collapse: preserve;&quot;&gt;&lt;/font&gt;&lt;span style=&quot;color: rgb(10, 10, 10); font-family: &amp;quot;Source Code Pro&amp;quot;, Consolas, &amp;quot;Bitstream Vera Sans Mono&amp;quot;, &amp;quot;Courier New&amp;quot;, Courier, monospace; font-weight: 400; white-space-collapse: preserve;&quot;&gt;&lt;br&gt;&lt;/span&gt;&lt;font style=&quot;box-sizing: border-box; color: rgb(10, 10, 10); font-family: &amp;quot;Source Code Pro&amp;quot;, Consolas, &amp;quot;Bitstream Vera Sans Mono&amp;quot;, &amp;quot;Courier New&amp;quot;, Courier, monospace; font-weight: 400; white-space-collapse: preserve;&quot;&gt;&lt;/font&gt;&lt;span style=&quot;color: rgb(10, 10, 10); font-family: &amp;quot;Source Code Pro&amp;quot;, Consolas, &amp;quot;Bitstream Vera Sans Mono&amp;quot;, &amp;quot;Courier New&amp;quot;, Courier, monospace; font-weight: 400; white-space-collapse: preserve;&quot;&gt;&lt;br&gt;    &lt;/span&gt;&lt;span style=&quot;box-sizing: border-box; font-family: &amp;quot;Source Code Pro&amp;quot;, Consolas, &amp;quot;Bitstream Vera Sans Mono&amp;quot;, &amp;quot;Courier New&amp;quot;, Courier, monospace; font-weight: 400; white-space-collapse: preserve; color: rgb(99, 177, 117);&quot; class=&quot;hljs-meta&quot;&gt;@OneToMany(mappedBy = &quot;courseObject&quot;)&lt;/span&gt;&lt;font style=&quot;box-sizing: border-box; color: rgb(10, 10, 10); font-family: &amp;quot;Source Code Pro&amp;quot;, Consolas, &amp;quot;Bitstream Vera Sans Mono&amp;quot;, &amp;quot;Courier New&amp;quot;, Courier, monospace; font-weight: 400; white-space-collapse: preserve;&quot;&gt;&lt;/font&gt;&lt;span style=&quot;color: rgb(10, 10, 10); font-family: &amp;quot;Source Code Pro&amp;quot;, Consolas, &amp;quot;Bitstream Vera Sans Mono&amp;quot;, &amp;quot;Courier New&amp;quot;, Courier, monospace; font-weight: 400; white-space-collapse: preserve;&quot;&gt;&lt;br&gt;    Set&amp;lt;CourseRating&amp;gt; courseRatingsObject;&lt;/span&gt;&lt;font style=&quot;box-sizing: border-box; color: rgb(10, 10, 10); font-family: &amp;quot;Source Code Pro&amp;quot;, Consolas, &amp;quot;Bitstream Vera Sans Mono&amp;quot;, &amp;quot;Courier New&amp;quot;, Courier, monospace; font-weight: 400; white-space-collapse: preserve;&quot;&gt;&lt;/font&gt;&lt;span style=&quot;color: rgb(10, 10, 10); font-family: &amp;quot;Source Code Pro&amp;quot;, Consolas, &amp;quot;Bitstream Vera Sans Mono&amp;quot;, &amp;quot;Courier New&amp;quot;, Courier, monospace; font-weight: 400; white-space-collapse: preserve;&quot;&gt;&lt;br&gt;&lt;/span&gt;&lt;font style=&quot;box-sizing: border-box; color: rgb(10, 10, 10); font-family: &amp;quot;Source Code Pro&amp;quot;, Consolas, &amp;quot;Bitstream Vera Sans Mono&amp;quot;, &amp;quot;Courier New&amp;quot;, Courier, monospace; font-weight: 400; white-space-collapse: preserve;&quot;&gt;&lt;/font&gt;&lt;span style=&quot;color: rgb(10, 10, 10); font-family: &amp;quot;Source Code Pro&amp;quot;, Consolas, &amp;quot;Bitstream Vera Sans Mono&amp;quot;, &amp;quot;Courier New&amp;quot;, Courier, monospace; font-weight: 400; white-space-collapse: preserve;&quot;&gt;&lt;br&gt;    &lt;/span&gt;&lt;span style=&quot;box-sizing: border-box; font-family: &amp;quot;Source Code Pro&amp;quot;, Consolas, &amp;quot;Bitstream Vera Sans Mono&amp;quot;, &amp;quot;Courier New&amp;quot;, Courier, monospace; font-weight: 400; white-space-collapse: preserve; color: rgb(99, 177, 117);&quot; class=&quot;hljs-comment&quot;&gt;// ...&lt;/span&gt;&lt;span style=&quot;color: rgb(10, 10, 10); font-family: &amp;quot;Source Code Pro&amp;quot;, Consolas, &amp;quot;Bitstream Vera Sans Mono&amp;quot;, &amp;quot;Courier New&amp;quot;, Courier, monospace; font-weight: 400; white-space-collapse: preserve;&quot;&gt;&lt;br&gt;}&lt;/span&gt;&lt;/span&gt;&lt;/h1&gt;" style="text;html=1;overflow=hidden;rounded=0;spacingTop=0;spacing=2;whiteSpace=wrap;fontSize=7;labelBackgroundColor=default;glass=0;absoluteArcSize=0;fillColor=default;" parent="TYIHFJzu6QTAWkSfno5F-8" vertex="1">
          <mxGeometry x="10" y="45" width="340" height="150" as="geometry" />
        </mxCell>
        <mxCell id="TYIHFJzu6QTAWkSfno5F-10" value="&lt;span style=&quot;text-align: left; white-space-collapse: preserve; box-sizing: border-box; font-family: &amp;quot;Source Code Pro&amp;quot;, Consolas, &amp;quot;Bitstream Vera Sans Mono&amp;quot;, &amp;quot;Courier New&amp;quot;, Courier, monospace; font-size: 14px; color: rgb(99, 177, 117);&quot; class=&quot;hljs-title class_&quot;&gt;CourseRating&lt;/span&gt;" style="swimlane;whiteSpace=wrap;html=1;swimlaneFillColor=default;fillColor=#EFEFEF;" parent="1" vertex="1">
          <mxGeometry x="600" y="340" width="330" height="490" as="geometry" />
        </mxCell>
        <mxCell id="TYIHFJzu6QTAWkSfno5F-11" value="&lt;h1 style=&quot;margin-top: 0px;&quot;&gt;&lt;span&gt;&lt;span style=&quot;box-sizing: border-box; font-family: &amp;quot;Source Code Pro&amp;quot;, Consolas, &amp;quot;Bitstream Vera Sans Mono&amp;quot;, &amp;quot;Courier New&amp;quot;, Courier, monospace; font-weight: 400; white-space-collapse: preserve; color: rgb(99, 177, 117);&quot; class=&quot;hljs-meta&quot;&gt;@Entity&lt;/span&gt;&lt;span style=&quot;color: rgb(10, 10, 10); font-family: &amp;quot;Source Code Pro&amp;quot;, Consolas, &amp;quot;Bitstream Vera Sans Mono&amp;quot;, &amp;quot;Courier New&amp;quot;, Courier, monospace; font-weight: 400; white-space-collapse: preserve;&quot;&gt;&lt;br&gt;&lt;/span&gt;&lt;span style=&quot;box-sizing: border-box; font-family: &amp;quot;Source Code Pro&amp;quot;, Consolas, &amp;quot;Bitstream Vera Sans Mono&amp;quot;, &amp;quot;Courier New&amp;quot;, Courier, monospace; white-space-collapse: preserve; color: rgb(99, 177, 117);&quot; class=&quot;hljs-keyword&quot;&gt;class&lt;/span&gt;&lt;span style=&quot;color: rgb(10, 10, 10); font-family: &amp;quot;Source Code Pro&amp;quot;, Consolas, &amp;quot;Bitstream Vera Sans Mono&amp;quot;, &amp;quot;Courier New&amp;quot;, Courier, monospace; font-weight: 400; white-space-collapse: preserve;&quot;&gt; &lt;/span&gt;&lt;span style=&quot;box-sizing: border-box; font-family: &amp;quot;Source Code Pro&amp;quot;, Consolas, &amp;quot;Bitstream Vera Sans Mono&amp;quot;, &amp;quot;Courier New&amp;quot;, Courier, monospace; white-space-collapse: preserve; color: rgb(99, 177, 117);&quot; class=&quot;hljs-title class_&quot;&gt;CourseRating&lt;/span&gt;&lt;span style=&quot;color: rgb(10, 10, 10); font-family: &amp;quot;Source Code Pro&amp;quot;, Consolas, &amp;quot;Bitstream Vera Sans Mono&amp;quot;, &amp;quot;Courier New&amp;quot;, Courier, monospace; font-weight: 400; white-space-collapse: preserve;&quot;&gt; {&lt;/span&gt;&lt;font style=&quot;box-sizing: border-box; color: rgb(10, 10, 10); font-family: &amp;quot;Source Code Pro&amp;quot;, Consolas, &amp;quot;Bitstream Vera Sans Mono&amp;quot;, &amp;quot;Courier New&amp;quot;, Courier, monospace; font-weight: 400; white-space-collapse: preserve;&quot;&gt;&lt;/font&gt;&lt;span style=&quot;color: rgb(10, 10, 10); font-family: &amp;quot;Source Code Pro&amp;quot;, Consolas, &amp;quot;Bitstream Vera Sans Mono&amp;quot;, &amp;quot;Courier New&amp;quot;, Courier, monospace; font-weight: 400; white-space-collapse: preserve;&quot;&gt;&lt;br&gt;&lt;/span&gt;&lt;font style=&quot;box-sizing: border-box; color: rgb(10, 10, 10); font-family: &amp;quot;Source Code Pro&amp;quot;, Consolas, &amp;quot;Bitstream Vera Sans Mono&amp;quot;, &amp;quot;Courier New&amp;quot;, Courier, monospace; font-weight: 400; white-space-collapse: preserve;&quot;&gt;&lt;/font&gt;&lt;span style=&quot;color: rgb(10, 10, 10); font-family: &amp;quot;Source Code Pro&amp;quot;, Consolas, &amp;quot;Bitstream Vera Sans Mono&amp;quot;, &amp;quot;Courier New&amp;quot;, Courier, monospace; font-weight: 400; white-space-collapse: preserve;&quot;&gt;&lt;br&gt;    &lt;/span&gt;&lt;span style=&quot;box-sizing: border-box; font-family: &amp;quot;Source Code Pro&amp;quot;, Consolas, &amp;quot;Bitstream Vera Sans Mono&amp;quot;, &amp;quot;Courier New&amp;quot;, Courier, monospace; font-weight: 400; white-space-collapse: preserve; color: rgb(99, 177, 117);&quot; class=&quot;hljs-meta&quot;&gt;@EmbeddedId&lt;/span&gt;&lt;font style=&quot;box-sizing: border-box; color: rgb(10, 10, 10); font-family: &amp;quot;Source Code Pro&amp;quot;, Consolas, &amp;quot;Bitstream Vera Sans Mono&amp;quot;, &amp;quot;Courier New&amp;quot;, Courier, monospace; font-weight: 400; white-space-collapse: preserve;&quot;&gt;&lt;/font&gt;&lt;span style=&quot;color: rgb(10, 10, 10); font-family: &amp;quot;Source Code Pro&amp;quot;, Consolas, &amp;quot;Bitstream Vera Sans Mono&amp;quot;, &amp;quot;Courier New&amp;quot;, Courier, monospace; font-weight: 400; white-space-collapse: preserve;&quot;&gt;&lt;br&gt;    CourseRatingKey id;&lt;/span&gt;&lt;font style=&quot;box-sizing: border-box; color: rgb(10, 10, 10); font-family: &amp;quot;Source Code Pro&amp;quot;, Consolas, &amp;quot;Bitstream Vera Sans Mono&amp;quot;, &amp;quot;Courier New&amp;quot;, Courier, monospace; font-weight: 400; white-space-collapse: preserve;&quot;&gt;&lt;/font&gt;&lt;span style=&quot;color: rgb(10, 10, 10); font-family: &amp;quot;Source Code Pro&amp;quot;, Consolas, &amp;quot;Bitstream Vera Sans Mono&amp;quot;, &amp;quot;Courier New&amp;quot;, Courier, monospace; font-weight: 400; white-space-collapse: preserve;&quot;&gt;&lt;br&gt;&lt;/span&gt;&lt;font style=&quot;box-sizing: border-box; color: rgb(10, 10, 10); font-family: &amp;quot;Source Code Pro&amp;quot;, Consolas, &amp;quot;Bitstream Vera Sans Mono&amp;quot;, &amp;quot;Courier New&amp;quot;, Courier, monospace; font-weight: 400; white-space-collapse: preserve;&quot;&gt;&lt;/font&gt;&lt;span style=&quot;color: rgb(10, 10, 10); font-family: &amp;quot;Source Code Pro&amp;quot;, Consolas, &amp;quot;Bitstream Vera Sans Mono&amp;quot;, &amp;quot;Courier New&amp;quot;, Courier, monospace; font-weight: 400; white-space-collapse: preserve;&quot;&gt;&lt;br&gt;&lt;br&gt;    &lt;/span&gt;&lt;span style=&quot;box-sizing: border-box; font-family: &amp;quot;Source Code Pro&amp;quot;, Consolas, &amp;quot;Bitstream Vera Sans Mono&amp;quot;, &amp;quot;Courier New&amp;quot;, Courier, monospace; font-weight: 400; white-space-collapse: preserve; color: rgb(99, 177, 117);&quot; class=&quot;hljs-meta&quot;&gt;@ManyToOne&lt;/span&gt;&lt;span style=&quot;color: rgb(10, 10, 10); font-family: &amp;quot;Source Code Pro&amp;quot;, Consolas, &amp;quot;Bitstream Vera Sans Mono&amp;quot;, &amp;quot;Courier New&amp;quot;, Courier, monospace; font-weight: 400; white-space-collapse: preserve;&quot;&gt;&lt;br&gt;    &lt;/span&gt;&lt;span style=&quot;box-sizing: border-box; font-family: &amp;quot;Source Code Pro&amp;quot;, Consolas, &amp;quot;Bitstream Vera Sans Mono&amp;quot;, &amp;quot;Courier New&amp;quot;, Courier, monospace; font-weight: 400; white-space-collapse: preserve; color: rgb(99, 177, 117);&quot; class=&quot;hljs-meta&quot;&gt;@MapsId(&quot;student_IdEmbedded&quot;)&lt;/span&gt;&lt;span style=&quot;color: rgb(10, 10, 10); font-family: &amp;quot;Source Code Pro&amp;quot;, Consolas, &amp;quot;Bitstream Vera Sans Mono&amp;quot;, &amp;quot;Courier New&amp;quot;, Courier, monospace; font-weight: 400; white-space-collapse: preserve;&quot;&gt;&lt;br&gt;    &lt;/span&gt;&lt;span style=&quot;box-sizing: border-box; font-family: &amp;quot;Source Code Pro&amp;quot;, Consolas, &amp;quot;Bitstream Vera Sans Mono&amp;quot;, &amp;quot;Courier New&amp;quot;, Courier, monospace; font-weight: 400; white-space-collapse: preserve; color: rgb(99, 177, 117);&quot; class=&quot;hljs-meta&quot;&gt;@JoinColumn(name = &quot;student_id&quot;)&lt;/span&gt;&lt;font style=&quot;box-sizing: border-box; color: rgb(10, 10, 10); font-family: &amp;quot;Source Code Pro&amp;quot;, Consolas, &amp;quot;Bitstream Vera Sans Mono&amp;quot;, &amp;quot;Courier New&amp;quot;, Courier, monospace; font-weight: 400; white-space-collapse: preserve;&quot;&gt;&lt;/font&gt;&lt;span style=&quot;color: rgb(10, 10, 10); font-family: &amp;quot;Source Code Pro&amp;quot;, Consolas, &amp;quot;Bitstream Vera Sans Mono&amp;quot;, &amp;quot;Courier New&amp;quot;, Courier, monospace; font-weight: 400; white-space-collapse: preserve;&quot;&gt;&lt;br&gt;    Student studentObject;&lt;/span&gt;&lt;font style=&quot;box-sizing: border-box; color: rgb(10, 10, 10); font-family: &amp;quot;Source Code Pro&amp;quot;, Consolas, &amp;quot;Bitstream Vera Sans Mono&amp;quot;, &amp;quot;Courier New&amp;quot;, Courier, monospace; font-weight: 400; white-space-collapse: preserve;&quot;&gt;&lt;/font&gt;&lt;span style=&quot;color: rgb(10, 10, 10); font-family: &amp;quot;Source Code Pro&amp;quot;, Consolas, &amp;quot;Bitstream Vera Sans Mono&amp;quot;, &amp;quot;Courier New&amp;quot;, Courier, monospace; font-weight: 400; white-space-collapse: preserve;&quot;&gt;&lt;br&gt;&lt;/span&gt;&lt;font style=&quot;box-sizing: border-box; color: rgb(10, 10, 10); font-family: &amp;quot;Source Code Pro&amp;quot;, Consolas, &amp;quot;Bitstream Vera Sans Mono&amp;quot;, &amp;quot;Courier New&amp;quot;, Courier, monospace; font-weight: 400; white-space-collapse: preserve;&quot;&gt;&lt;/font&gt;&lt;span style=&quot;color: rgb(10, 10, 10); font-family: &amp;quot;Source Code Pro&amp;quot;, Consolas, &amp;quot;Bitstream Vera Sans Mono&amp;quot;, &amp;quot;Courier New&amp;quot;, Courier, monospace; font-weight: 400; white-space-collapse: preserve;&quot;&gt;&lt;br&gt;    &lt;/span&gt;&lt;span style=&quot;box-sizing: border-box; font-family: &amp;quot;Source Code Pro&amp;quot;, Consolas, &amp;quot;Bitstream Vera Sans Mono&amp;quot;, &amp;quot;Courier New&amp;quot;, Courier, monospace; font-weight: 400; white-space-collapse: preserve; color: rgb(99, 177, 117);&quot; class=&quot;hljs-meta&quot;&gt;@ManyToOne&lt;/span&gt;&lt;span style=&quot;color: rgb(10, 10, 10); font-family: &amp;quot;Source Code Pro&amp;quot;, Consolas, &amp;quot;Bitstream Vera Sans Mono&amp;quot;, &amp;quot;Courier New&amp;quot;, Courier, monospace; font-weight: 400; white-space-collapse: preserve;&quot;&gt;&lt;br&gt;    &lt;/span&gt;&lt;span style=&quot;box-sizing: border-box; font-family: &amp;quot;Source Code Pro&amp;quot;, Consolas, &amp;quot;Bitstream Vera Sans Mono&amp;quot;, &amp;quot;Courier New&amp;quot;, Courier, monospace; font-weight: 400; white-space-collapse: preserve; color: rgb(99, 177, 117);&quot; class=&quot;hljs-meta&quot;&gt;@MapsId(&quot;course_IdEmbedded&quot;)&lt;/span&gt;&lt;span style=&quot;color: rgb(10, 10, 10); font-family: &amp;quot;Source Code Pro&amp;quot;, Consolas, &amp;quot;Bitstream Vera Sans Mono&amp;quot;, &amp;quot;Courier New&amp;quot;, Courier, monospace; font-weight: 400; white-space-collapse: preserve;&quot;&gt;&lt;br&gt;    &lt;/span&gt;&lt;span style=&quot;box-sizing: border-box; font-family: &amp;quot;Source Code Pro&amp;quot;, Consolas, &amp;quot;Bitstream Vera Sans Mono&amp;quot;, &amp;quot;Courier New&amp;quot;, Courier, monospace; font-weight: 400; white-space-collapse: preserve; color: rgb(99, 177, 117);&quot; class=&quot;hljs-meta&quot;&gt;@JoinColumn(name = &quot;course_id&quot;)&lt;/span&gt;&lt;font style=&quot;box-sizing: border-box; color: rgb(10, 10, 10); font-family: &amp;quot;Source Code Pro&amp;quot;, Consolas, &amp;quot;Bitstream Vera Sans Mono&amp;quot;, &amp;quot;Courier New&amp;quot;, Courier, monospace; font-weight: 400; white-space-collapse: preserve;&quot;&gt;&lt;/font&gt;&lt;span style=&quot;color: rgb(10, 10, 10); font-family: &amp;quot;Source Code Pro&amp;quot;, Consolas, &amp;quot;Bitstream Vera Sans Mono&amp;quot;, &amp;quot;Courier New&amp;quot;, Courier, monospace; font-weight: 400; white-space-collapse: preserve;&quot;&gt;&lt;br&gt;    Course courseObject;&lt;/span&gt;&lt;font style=&quot;box-sizing: border-box; color: rgb(10, 10, 10); font-family: &amp;quot;Source Code Pro&amp;quot;, Consolas, &amp;quot;Bitstream Vera Sans Mono&amp;quot;, &amp;quot;Courier New&amp;quot;, Courier, monospace; font-weight: 400; white-space-collapse: preserve;&quot;&gt;&lt;/font&gt;&lt;span style=&quot;color: rgb(10, 10, 10); font-family: &amp;quot;Source Code Pro&amp;quot;, Consolas, &amp;quot;Bitstream Vera Sans Mono&amp;quot;, &amp;quot;Courier New&amp;quot;, Courier, monospace; font-weight: 400; white-space-collapse: preserve;&quot;&gt;&lt;br&gt;&lt;/span&gt;&lt;font style=&quot;box-sizing: border-box; color: rgb(10, 10, 10); font-family: &amp;quot;Source Code Pro&amp;quot;, Consolas, &amp;quot;Bitstream Vera Sans Mono&amp;quot;, &amp;quot;Courier New&amp;quot;, Courier, monospace; font-weight: 400; white-space-collapse: preserve;&quot;&gt;&lt;/font&gt;&lt;span style=&quot;color: rgb(10, 10, 10); font-family: &amp;quot;Source Code Pro&amp;quot;, Consolas, &amp;quot;Bitstream Vera Sans Mono&amp;quot;, &amp;quot;Courier New&amp;quot;, Courier, monospace; font-weight: 400; white-space-collapse: preserve;&quot;&gt;&lt;br&gt;    &lt;/span&gt;&lt;span style=&quot;box-sizing: border-box; font-family: &amp;quot;Source Code Pro&amp;quot;, Consolas, &amp;quot;Bitstream Vera Sans Mono&amp;quot;, &amp;quot;Courier New&amp;quot;, Courier, monospace; white-space-collapse: preserve; color: rgb(99, 177, 117);&quot; class=&quot;hljs-type&quot;&gt;int&lt;/span&gt;&lt;span style=&quot;color: rgb(10, 10, 10); font-family: &amp;quot;Source Code Pro&amp;quot;, Consolas, &amp;quot;Bitstream Vera Sans Mono&amp;quot;, &amp;quot;Courier New&amp;quot;, Courier, monospace; font-weight: 400; white-space-collapse: preserve;&quot;&gt; rating;&lt;/span&gt;&lt;font style=&quot;box-sizing: border-box; color: rgb(10, 10, 10); font-family: &amp;quot;Source Code Pro&amp;quot;, Consolas, &amp;quot;Bitstream Vera Sans Mono&amp;quot;, &amp;quot;Courier New&amp;quot;, Courier, monospace; font-weight: 400; white-space-collapse: preserve;&quot;&gt;&lt;/font&gt;&lt;span style=&quot;color: rgb(10, 10, 10); font-family: &amp;quot;Source Code Pro&amp;quot;, Consolas, &amp;quot;Bitstream Vera Sans Mono&amp;quot;, &amp;quot;Courier New&amp;quot;, Courier, monospace; font-weight: 400; white-space-collapse: preserve;&quot;&gt;&lt;br&gt;    &lt;/span&gt;&lt;font style=&quot;box-sizing: border-box; color: rgb(10, 10, 10); font-family: &amp;quot;Source Code Pro&amp;quot;, Consolas, &amp;quot;Bitstream Vera Sans Mono&amp;quot;, &amp;quot;Courier New&amp;quot;, Courier, monospace; font-weight: 400; white-space-collapse: preserve;&quot;&gt;&lt;/font&gt;&lt;span style=&quot;color: rgb(10, 10, 10); font-family: &amp;quot;Source Code Pro&amp;quot;, Consolas, &amp;quot;Bitstream Vera Sans Mono&amp;quot;, &amp;quot;Courier New&amp;quot;, Courier, monospace; font-weight: 400; white-space-collapse: preserve;&quot;&gt;&lt;br&gt;&lt;/span&gt;&lt;span style=&quot;color: rgb(10, 10, 10); font-family: &amp;quot;Source Code Pro&amp;quot;, Consolas, &amp;quot;Bitstream Vera Sans Mono&amp;quot;, &amp;quot;Courier New&amp;quot;, Courier, monospace; font-weight: 400; white-space-collapse: preserve;&quot;&gt;}&lt;/span&gt;&lt;/span&gt;&lt;/h1&gt;" style="text;html=1;overflow=hidden;rounded=0;spacingTop=0;spacing=2;whiteSpace=wrap;fontSize=7;labelBackgroundColor=default;" parent="TYIHFJzu6QTAWkSfno5F-10" vertex="1">
          <mxGeometry x="11" y="74" width="300" height="406" as="geometry" />
        </mxCell>
        <mxCell id="TYIHFJzu6QTAWkSfno5F-12" style="edgeStyle=orthogonalEdgeStyle;rounded=0;orthogonalLoop=1;jettySize=auto;html=1;exitX=1;exitY=0.5;exitDx=0;exitDy=0;endArrow=diamondThin;endFill=0;strokeWidth=4;endSize=34;entryX=0;entryY=0.5;entryDx=0;entryDy=0;" parent="1" source="TYIHFJzu6QTAWkSfno5F-4" target="TYIHFJzu6QTAWkSfno5F-10" edge="1">
          <mxGeometry relative="1" as="geometry">
            <mxPoint x="590" y="560" as="targetPoint" />
            <Array as="points">
              <mxPoint x="470" y="330" />
              <mxPoint x="470" y="585" />
            </Array>
          </mxGeometry>
        </mxCell>
        <mxCell id="TYIHFJzu6QTAWkSfno5F-14" value="&lt;h1 style=&quot;margin-top: 0px;&quot;&gt;&lt;span&gt;&lt;span style=&quot;box-sizing: border-box;&quot; class=&quot;hljs-title class_&quot;&gt;&lt;font style=&quot;font-size: 12px;&quot;&gt;CourseRatingKey&lt;/font&gt;&lt;/span&gt; &lt;/span&gt;&lt;/h1&gt;" style="swimlane;whiteSpace=wrap;html=1;swimlaneFillColor=default;fillColor=#EFEFEF;" parent="1" vertex="1">
          <mxGeometry x="600" y="880" width="380" height="290" as="geometry" />
        </mxCell>
        <mxCell id="TYIHFJzu6QTAWkSfno5F-15" value="&lt;h1 style=&quot;margin-top: 0px;&quot;&gt;&lt;span&gt;&lt;span style=&quot;box-sizing: border-box; font-family: &amp;quot;Source Code Pro&amp;quot;, Consolas, &amp;quot;Bitstream Vera Sans Mono&amp;quot;, &amp;quot;Courier New&amp;quot;, Courier, monospace; font-weight: 400; white-space-collapse: preserve; color: rgb(99, 177, 117);&quot; class=&quot;hljs-meta&quot;&gt;@Embeddable&lt;/span&gt;&lt;span style=&quot;color: rgb(10, 10, 10); font-family: &amp;quot;Source Code Pro&amp;quot;, Consolas, &amp;quot;Bitstream Vera Sans Mono&amp;quot;, &amp;quot;Courier New&amp;quot;, Courier, monospace; font-weight: 400; white-space-collapse: preserve;&quot;&gt;&lt;br&gt;&lt;/span&gt;&lt;span style=&quot;box-sizing: border-box; font-family: &amp;quot;Source Code Pro&amp;quot;, Consolas, &amp;quot;Bitstream Vera Sans Mono&amp;quot;, &amp;quot;Courier New&amp;quot;, Courier, monospace; white-space-collapse: preserve; color: rgb(99, 177, 117);&quot; class=&quot;hljs-keyword&quot;&gt;class&lt;/span&gt;&lt;span style=&quot;color: rgb(10, 10, 10); font-family: &amp;quot;Source Code Pro&amp;quot;, Consolas, &amp;quot;Bitstream Vera Sans Mono&amp;quot;, &amp;quot;Courier New&amp;quot;, Courier, monospace; font-weight: 400; white-space-collapse: preserve;&quot;&gt; &lt;/span&gt;&lt;span style=&quot;box-sizing: border-box; font-family: &amp;quot;Source Code Pro&amp;quot;, Consolas, &amp;quot;Bitstream Vera Sans Mono&amp;quot;, &amp;quot;Courier New&amp;quot;, Courier, monospace; white-space-collapse: preserve; color: rgb(99, 177, 117);&quot; class=&quot;hljs-title class_&quot;&gt;CourseRatingKey&lt;/span&gt;&lt;span style=&quot;color: rgb(10, 10, 10); font-family: &amp;quot;Source Code Pro&amp;quot;, Consolas, &amp;quot;Bitstream Vera Sans Mono&amp;quot;, &amp;quot;Courier New&amp;quot;, Courier, monospace; font-weight: 400; white-space-collapse: preserve;&quot;&gt; &lt;/span&gt;&lt;span style=&quot;box-sizing: border-box; font-family: &amp;quot;Source Code Pro&amp;quot;, Consolas, &amp;quot;Bitstream Vera Sans Mono&amp;quot;, &amp;quot;Courier New&amp;quot;, Courier, monospace; white-space-collapse: preserve; color: rgb(99, 177, 117);&quot; class=&quot;hljs-keyword&quot;&gt;implements&lt;/span&gt;&lt;span style=&quot;color: rgb(10, 10, 10); font-family: &amp;quot;Source Code Pro&amp;quot;, Consolas, &amp;quot;Bitstream Vera Sans Mono&amp;quot;, &amp;quot;Courier New&amp;quot;, Courier, monospace; font-weight: 400; white-space-collapse: preserve;&quot;&gt; &lt;/span&gt;&lt;span style=&quot;box-sizing: border-box; font-family: &amp;quot;Source Code Pro&amp;quot;, Consolas, &amp;quot;Bitstream Vera Sans Mono&amp;quot;, &amp;quot;Courier New&amp;quot;, Courier, monospace; white-space-collapse: preserve; color: rgb(99, 177, 117);&quot; class=&quot;hljs-title class_&quot;&gt;Serializable&lt;/span&gt;&lt;span style=&quot;color: rgb(10, 10, 10); font-family: &amp;quot;Source Code Pro&amp;quot;, Consolas, &amp;quot;Bitstream Vera Sans Mono&amp;quot;, &amp;quot;Courier New&amp;quot;, Courier, monospace; font-weight: 400; white-space-collapse: preserve;&quot;&gt; {&lt;/span&gt;&lt;font style=&quot;box-sizing: border-box; color: rgb(10, 10, 10); font-family: &amp;quot;Source Code Pro&amp;quot;, Consolas, &amp;quot;Bitstream Vera Sans Mono&amp;quot;, &amp;quot;Courier New&amp;quot;, Courier, monospace; font-weight: 400; white-space-collapse: preserve;&quot;&gt;&lt;/font&gt;&lt;span style=&quot;color: rgb(10, 10, 10); font-family: &amp;quot;Source Code Pro&amp;quot;, Consolas, &amp;quot;Bitstream Vera Sans Mono&amp;quot;, &amp;quot;Courier New&amp;quot;, Courier, monospace; font-weight: 400; white-space-collapse: preserve;&quot;&gt;&lt;br&gt;&lt;/span&gt;&lt;font style=&quot;box-sizing: border-box; color: rgb(10, 10, 10); font-family: &amp;quot;Source Code Pro&amp;quot;, Consolas, &amp;quot;Bitstream Vera Sans Mono&amp;quot;, &amp;quot;Courier New&amp;quot;, Courier, monospace; font-weight: 400; white-space-collapse: preserve;&quot;&gt;&lt;/font&gt;&lt;span style=&quot;color: rgb(10, 10, 10); font-family: &amp;quot;Source Code Pro&amp;quot;, Consolas, &amp;quot;Bitstream Vera Sans Mono&amp;quot;, &amp;quot;Courier New&amp;quot;, Courier, monospace; font-weight: 400; white-space-collapse: preserve;&quot;&gt;&lt;br&gt;    &lt;/span&gt;&lt;span style=&quot;box-sizing: border-box; font-family: &amp;quot;Source Code Pro&amp;quot;, Consolas, &amp;quot;Bitstream Vera Sans Mono&amp;quot;, &amp;quot;Courier New&amp;quot;, Courier, monospace; font-weight: 400; white-space-collapse: preserve; color: rgb(99, 177, 117);&quot; class=&quot;hljs-meta&quot;&gt;@Column(name = &quot;student_id&quot;)&lt;/span&gt;&lt;font style=&quot;box-sizing: border-box; color: rgb(10, 10, 10); font-family: &amp;quot;Source Code Pro&amp;quot;, Consolas, &amp;quot;Bitstream Vera Sans Mono&amp;quot;, &amp;quot;Courier New&amp;quot;, Courier, monospace; font-weight: 400; white-space-collapse: preserve;&quot;&gt;&lt;/font&gt;&lt;span style=&quot;color: rgb(10, 10, 10); font-family: &amp;quot;Source Code Pro&amp;quot;, Consolas, &amp;quot;Bitstream Vera Sans Mono&amp;quot;, &amp;quot;Courier New&amp;quot;, Courier, monospace; font-weight: 400; white-space-collapse: preserve;&quot;&gt;&lt;br&gt;    Long student_IdEmbedded;&lt;/span&gt;&lt;font style=&quot;box-sizing: border-box; color: rgb(10, 10, 10); font-family: &amp;quot;Source Code Pro&amp;quot;, Consolas, &amp;quot;Bitstream Vera Sans Mono&amp;quot;, &amp;quot;Courier New&amp;quot;, Courier, monospace; font-weight: 400; white-space-collapse: preserve;&quot;&gt;&lt;/font&gt;&lt;span style=&quot;color: rgb(10, 10, 10); font-family: &amp;quot;Source Code Pro&amp;quot;, Consolas, &amp;quot;Bitstream Vera Sans Mono&amp;quot;, &amp;quot;Courier New&amp;quot;, Courier, monospace; font-weight: 400; white-space-collapse: preserve;&quot;&gt;&lt;br&gt;&lt;/span&gt;&lt;font style=&quot;box-sizing: border-box; color: rgb(10, 10, 10); font-family: &amp;quot;Source Code Pro&amp;quot;, Consolas, &amp;quot;Bitstream Vera Sans Mono&amp;quot;, &amp;quot;Courier New&amp;quot;, Courier, monospace; font-weight: 400; white-space-collapse: preserve;&quot;&gt;&lt;/font&gt;&lt;span style=&quot;color: rgb(10, 10, 10); font-family: &amp;quot;Source Code Pro&amp;quot;, Consolas, &amp;quot;Bitstream Vera Sans Mono&amp;quot;, &amp;quot;Courier New&amp;quot;, Courier, monospace; font-weight: 400; white-space-collapse: preserve;&quot;&gt;&lt;br&gt;    &lt;/span&gt;&lt;span style=&quot;box-sizing: border-box; font-family: &amp;quot;Source Code Pro&amp;quot;, Consolas, &amp;quot;Bitstream Vera Sans Mono&amp;quot;, &amp;quot;Courier New&amp;quot;, Courier, monospace; font-weight: 400; white-space-collapse: preserve; color: rgb(99, 177, 117);&quot; class=&quot;hljs-meta&quot;&gt;@Column(name = &quot;course_id&quot;)&lt;/span&gt;&lt;font style=&quot;box-sizing: border-box; color: rgb(10, 10, 10); font-family: &amp;quot;Source Code Pro&amp;quot;, Consolas, &amp;quot;Bitstream Vera Sans Mono&amp;quot;, &amp;quot;Courier New&amp;quot;, Courier, monospace; font-weight: 400; white-space-collapse: preserve;&quot;&gt;&lt;/font&gt;&lt;span style=&quot;color: rgb(10, 10, 10); font-family: &amp;quot;Source Code Pro&amp;quot;, Consolas, &amp;quot;Bitstream Vera Sans Mono&amp;quot;, &amp;quot;Courier New&amp;quot;, Courier, monospace; font-weight: 400; white-space-collapse: preserve;&quot;&gt;&lt;br&gt;    Long course_IdEmbedded;&lt;/span&gt;&lt;font style=&quot;box-sizing: border-box; color: rgb(10, 10, 10); font-family: &amp;quot;Source Code Pro&amp;quot;, Consolas, &amp;quot;Bitstream Vera Sans Mono&amp;quot;, &amp;quot;Courier New&amp;quot;, Courier, monospace; font-weight: 400; white-space-collapse: preserve;&quot;&gt;&lt;/font&gt;&lt;span style=&quot;color: rgb(10, 10, 10); font-family: &amp;quot;Source Code Pro&amp;quot;, Consolas, &amp;quot;Bitstream Vera Sans Mono&amp;quot;, &amp;quot;Courier New&amp;quot;, Courier, monospace; font-weight: 400; white-space-collapse: preserve;&quot;&gt;&lt;br&gt;&lt;/span&gt;&lt;span style=&quot;color: rgb(10, 10, 10); font-family: &amp;quot;Source Code Pro&amp;quot;, Consolas, &amp;quot;Bitstream Vera Sans Mono&amp;quot;, &amp;quot;Courier New&amp;quot;, Courier, monospace; font-weight: 400; white-space-collapse: preserve;&quot;&gt;&lt;br&gt;}&lt;/span&gt;&lt;/span&gt;&lt;/h1&gt;" style="text;html=1;overflow=hidden;rounded=0;spacingTop=0;spacing=2;whiteSpace=wrap;fontSize=7;labelBackgroundColor=default;" parent="TYIHFJzu6QTAWkSfno5F-14" vertex="1">
          <mxGeometry x="11" y="74" width="369" height="216" as="geometry" />
        </mxCell>
        <mxCell id="TYIHFJzu6QTAWkSfno5F-17" value="https://www.baeldung.com/jpa-many-to-many#2-creating-a-composite-key-in-jpa" style="text;html=1;align=left;verticalAlign=middle;resizable=0;points=[];autosize=1;strokeColor=none;fillColor=none;labelBackgroundColor=default;fontSize=20;" parent="1" vertex="1">
          <mxGeometry x="220" y="-105" width="730" height="40" as="geometry" />
        </mxCell>
      </root>
    </mxGraphModel>
  </diagram>
</mxfile>
